<svg width="56" height="10" viewBox="0 0 56 10" fill="none" xmlns="http://www.w3.org/2000/svg">
  <path d="M3.26361 6.98411H5.83161V9.00011H0.599609V0.504108H3.26361V6.98411Z" fill="black"/>
  <path d="M10.8099 9.08411C10.0099 9.08411 9.27392 8.89611 8.60192 8.52011C7.93792 8.14411 7.40992 7.62411 7.01792 6.96011C6.62592 6.29611 6.42992 5.54811 6.42992 4.71611C6.42992 3.88411 6.62592 3.13611 7.01792 2.47211C7.40992 1.80811 7.93792 1.29211 8.60192 0.924107C9.27392 0.548107 10.0099 0.360107 10.8099 0.360107C11.6099 0.360107 12.3419 0.548107 13.0059 0.924107C13.6699 1.29211 14.1939 1.80811 14.5779 2.47211C14.9699 3.13611 15.1659 3.88411 15.1659 4.71611C15.1659 5.54811 14.9699 6.29611 14.5779 6.96011C14.1939 7.62411 13.6659 8.14411 12.9939 8.52011C12.3299 8.89611 11.6019 9.08411 10.8099 9.08411ZM10.8099 6.60011C11.3379 6.60011 11.7459 6.43211 12.0339 6.09611C12.3219 5.75211 12.4659 5.29211 12.4659 4.71611C12.4659 4.13211 12.3219 3.67211 12.0339 3.33611C11.7459 2.99211 11.3379 2.82011 10.8099 2.82011C10.2739 2.82011 9.86192 2.99211 9.57392 3.33611C9.28592 3.67211 9.14192 4.13211 9.14192 4.71611C9.14192 5.29211 9.28592 5.75211 9.57392 6.09611C9.86192 6.43211 10.2739 6.60011 10.8099 6.60011Z" fill="black"/>
  <path d="M21.575 7.71611H18.743L18.323 9.00011H15.527L18.635 0.504108H21.707L24.803 9.00011H21.995L21.575 7.71611ZM20.927 5.71211L20.159 3.34811L19.391 5.71211H20.927Z" fill="black"/>
  <path d="M28.9482 0.504108C29.8362 0.504108 30.6122 0.684108 31.2762 1.04411C31.9482 1.40411 32.4642 1.90411 32.8242 2.54411C33.1842 3.18411 33.3642 3.91211 33.3642 4.72811C33.3642 5.53611 33.1842 6.26411 32.8242 6.91211C32.4642 7.56011 31.9482 8.07211 31.2762 8.44811C30.6122 8.81611 29.8362 9.00011 28.9482 9.00011H25.4082V0.504108H28.9482ZM28.7082 6.62411C29.3082 6.62411 29.7842 6.46011 30.1362 6.13211C30.4882 5.80411 30.6642 5.33611 30.6642 4.72811C30.6642 4.12011 30.4882 3.65211 30.1362 3.32411C29.7842 2.99611 29.3082 2.83211 28.7082 2.83211H28.0722V6.62411H28.7082Z" fill="black"/>
  <path d="M36.9902 0.504108V9.00011H34.3262V0.504108H36.9902Z" fill="black"/>
  <path d="M46.3414 9.00011H43.6774L40.8574 4.72811V9.00011H38.1934V0.504108H40.8574L43.6774 4.84811V0.504108H46.3414V9.00011Z" fill="black"/>
  <path d="M52.7529 3.40811C52.6489 3.24011 52.5009 3.11211 52.3089 3.02411C52.1169 2.92811 51.8849 2.88011 51.6129 2.88011C51.1009 2.88011 50.7049 3.04811 50.4249 3.38411C50.1449 3.71211 50.0049 4.16411 50.0049 4.74011C50.0049 5.40411 50.1609 5.90011 50.4729 6.22811C50.7849 6.55611 51.2649 6.72011 51.9129 6.72011C52.5289 6.72011 53.0249 6.47211 53.4009 5.97611H51.2769V4.09211H55.6089V6.75611C55.2409 7.38811 54.7329 7.93211 54.0849 8.38811C53.4369 8.83611 52.6169 9.06011 51.6249 9.06011C50.7449 9.06011 49.9769 8.88011 49.3209 8.52011C48.6729 8.15211 48.1729 7.64011 47.8209 6.98411C47.4769 6.32811 47.3049 5.58011 47.3049 4.74011C47.3049 3.90011 47.4769 3.15211 47.8209 2.49611C48.1729 1.84011 48.6729 1.33211 49.3209 0.972107C49.9689 0.604107 50.7289 0.420107 51.6009 0.420107C52.7129 0.420107 53.6169 0.688107 54.3129 1.22411C55.0169 1.76011 55.4329 2.48811 55.5609 3.40811H52.7529Z" fill="black"/>
</svg>
