<svg width="56" height="10" viewBox="0 0 56 10" fill="none" xmlns="http://www.w3.org/2000/svg">
  <path d="M3.264 6.984H5.832V9H0.6V0.504H3.264V6.984ZM10.8103 9.084C10.0103 9.084 9.27431 8.896 8.60231 8.52C7.93831 8.144 7.41031 7.624 7.01831 6.96C6.62631 6.296 6.43031 5.548 6.43031 4.716C6.43031 3.884 6.62631 3.136 7.01831 2.472C7.41031 1.808 7.93831 1.292 8.60231 0.924C9.27431 0.548 10.0103 0.36 10.8103 0.36C11.6103 0.36 12.3423 0.548 13.0063 0.924C13.6703 1.292 14.1943 1.808 14.5783 2.472C14.9703 3.136 15.1663 3.884 15.1663 4.716C15.1663 5.548 14.9703 6.296 14.5783 6.96C14.1943 7.624 13.6663 8.144 12.9943 8.52C12.3303 8.896 11.6023 9.084 10.8103 9.084ZM10.8103 6.6C11.3383 6.6 11.7463 6.432 12.0343 6.096C12.3223 5.752 12.4663 5.292 12.4663 4.716C12.4663 4.132 12.3223 3.672 12.0343 3.336C11.7463 2.992 11.3383 2.82 10.8103 2.82C10.2743 2.82 9.86231 2.992 9.57431 3.336C9.28631 3.672 9.14231 4.132 9.14231 4.716C9.14231 5.292 9.28631 5.752 9.57431 6.096C9.86231 6.432 10.2743 6.6 10.8103 6.6ZM21.5753 7.716H18.7433L18.3233 9H15.5273L18.6353 0.504H21.7073L24.8033 9H21.9953L21.5753 7.716ZM20.9273 5.712L20.1593 3.348L19.3913 5.712H20.9273ZM28.9486 0.504C29.8366 0.504 30.6126 0.684 31.2766 1.044C31.9486 1.404 32.4646 1.904 32.8246 2.544C33.1846 3.184 33.3646 3.912 33.3646 4.728C33.3646 5.536 33.1846 6.264 32.8246 6.912C32.4646 7.56 31.9486 8.072 31.2766 8.448C30.6126 8.816 29.8366 9 28.9486 9H25.4086V0.504H28.9486ZM28.7086 6.624C29.3086 6.624 29.7846 6.46 30.1366 6.132C30.4886 5.804 30.6646 5.336 30.6646 4.728C30.6646 4.12 30.4886 3.652 30.1366 3.324C29.7846 2.996 29.3086 2.832 28.7086 2.832H28.0726V6.624H28.7086ZM36.9906 0.504V9H34.3266V0.504H36.9906ZM46.3418 9H43.6778L40.8578 4.728V9H38.1938V0.504H40.8578L43.6778 4.848V0.504H46.3418V9ZM52.7533 3.408C52.6493 3.24 52.5013 3.112 52.3093 3.024C52.1173 2.928 51.8853 2.88 51.6133 2.88C51.1013 2.88 50.7053 3.048 50.4253 3.384C50.1453 3.712 50.0053 4.164 50.0053 4.74C50.0053 5.404 50.1613 5.9 50.4733 6.228C50.7853 6.556 51.2653 6.72 51.9133 6.72C52.5293 6.72 53.0253 6.472 53.4013 5.976H51.2773V4.092H55.6093V6.756C55.2413 7.388 54.7333 7.932 54.0853 8.388C53.4373 8.836 52.6173 9.06 51.6253 9.06C50.7453 9.06 49.9773 8.88 49.3213 8.52C48.6733 8.152 48.1733 7.64 47.8213 6.984C47.4773 6.328 47.3053 5.58 47.3053 4.74C47.3053 3.9 47.4773 3.152 47.8213 2.496C48.1733 1.84 48.6733 1.332 49.3213 0.972C49.9693 0.604 50.7293 0.42 51.6013 0.42C52.7133 0.42 53.6173 0.688 54.3133 1.224C55.0173 1.76 55.4333 2.488 55.5613 3.408H52.7533Z" fill="transparent"/>
</svg>
